<?xml version="1.0" encoding="utf-8"?>
<!-- Generator: Adobe Illustrator 15.1.0, SVG Export Plug-In . SVG Version: 6.00 Build 0)  -->
<!DOCTYPE svg PUBLIC "-//W3C//DTD SVG 1.1//EN" "http://www.w3.org/Graphics/SVG/1.1/DTD/svg11.dtd">
<svg version="1.1" id="Layer_1" xmlns="http://www.w3.org/2000/svg" xmlns:xlink="http://www.w3.org/1999/xlink" x="0px" y="0px"
	 width="188.739px" height="190.269px" viewBox="0 0 188.739 190.269" enable-background="new 0 0 188.739 190.269"
	 xml:space="preserve">
<g>
	<g>
		
			<linearGradient id="SVGID_1_" gradientUnits="userSpaceOnUse" x1="-344.2646" y1="-445.938" x2="-3.1879" y2="-152.0869" gradientTransform="matrix(-1 0 0 -1 -125.2803 -243.4443)">
			<stop  offset="0" style="stop-color:#FCCF61"/>
			<stop  offset="0.0806" style="stop-color:#FFFFFF"/>
			<stop  offset="0.1935" style="stop-color:#F4D271"/>
			<stop  offset="0.2642" style="stop-color:#D8A73B"/>
			<stop  offset="0.3223" style="stop-color:#BF8729"/>
			<stop  offset="0.3617" style="stop-color:#B2761F"/>
			<stop  offset="0.378" style="stop-color:#B1741E"/>
			<stop  offset="0.4708" style="stop-color:#AD701D"/>
			<stop  offset="0.5126" style="stop-color:#B77D26"/>
			<stop  offset="0.5587" style="stop-color:#C69133"/>
			<stop  offset="0.6761" style="stop-color:#F4D15E"/>
			<stop  offset="0.6997" style="stop-color:#F1CE5C"/>
			<stop  offset="0.719" style="stop-color:#E9C456"/>
			<stop  offset="0.7367" style="stop-color:#DBB34B"/>
			<stop  offset="0.7536" style="stop-color:#C89A3D"/>
			<stop  offset="0.7696" style="stop-color:#AF7C2A"/>
			<stop  offset="0.7852" style="stop-color:#905613"/>
			<stop  offset="0.8061" style="stop-color:#965E18"/>
			<stop  offset="0.8386" style="stop-color:#A87425"/>
			<stop  offset="0.8785" style="stop-color:#C5973B"/>
			<stop  offset="0.9239" style="stop-color:#EDC95A"/>
			<stop  offset="0.9377" style="stop-color:#FAD964"/>
		</linearGradient>
		<path fill="url(#SVGID_1_)" d="M17.132,95.135c0-42.652,34.59-77.232,77.242-77.232s77.231,34.58,77.231,77.232
			c0,42.654-34.579,77.232-77.231,77.232S17.132,137.789,17.132,95.135z"/>
		<linearGradient id="SVGID_2_" gradientUnits="userSpaceOnUse" x1="-6.0776" y1="-32.9263" x2="158.557" y2="176.9661">
			<stop  offset="0" style="stop-color:#D8A73B"/>
			<stop  offset="0.0841" style="stop-color:#BF8729"/>
			<stop  offset="0.1413" style="stop-color:#B2761F"/>
			<stop  offset="0.1528" style="stop-color:#B1741E"/>
			<stop  offset="0.2181" style="stop-color:#AD701D"/>
			<stop  offset="0.3007" style="stop-color:#B77D26"/>
			<stop  offset="0.3921" style="stop-color:#C69133"/>
			<stop  offset="0.6615" style="stop-color:#905613"/>
			<stop  offset="0.8817" style="stop-color:#905613"/>
			<stop  offset="1" style="stop-color:#3F1400"/>
		</linearGradient>
		<path fill="url(#SVGID_2_)" d="M94.374,172.367c42.652,0,77.231-34.578,77.231-77.232c0-42.652-34.579-77.232-77.231-77.232
			s-77.242,34.58-77.242,77.232C17.132,137.789,51.722,172.367,94.374,172.367z M94.374,19.053c41.95,0,76.084,34.133,76.084,76.082
			c0,41.951-34.134,76.084-76.084,76.084c-41.958,0-76.084-34.133-76.084-76.084C18.29,53.186,52.416,19.053,94.374,19.053z"/>
		
			<linearGradient id="SVGID_3_" gradientUnits="userSpaceOnUse" x1="129.2959" y1="-409.8022" x2="103.424" y2="-347.0486" gradientTransform="matrix(1 0 0 -1 -7.207 -243.4443)">
			<stop  offset="0.0217" style="stop-color:#FFFFFF"/>
			<stop  offset="0.2933" style="stop-color:#FAD964"/>
			<stop  offset="0.5567" style="stop-color:#F4D15E"/>
			<stop  offset="0.5912" style="stop-color:#BBA049"/>
			<stop  offset="0.6283" style="stop-color:#857235"/>
			<stop  offset="0.6646" style="stop-color:#584C25"/>
			<stop  offset="0.6993" style="stop-color:#352E18"/>
			<stop  offset="0.7318" style="stop-color:#1B180F"/>
			<stop  offset="0.7613" style="stop-color:#0C0B09"/>
			<stop  offset="0.7852" style="stop-color:#070707"/>
		</linearGradient>
		<path opacity="0.7" fill="url(#SVGID_3_)" d="M40.283,120.543c11.313,20.361,28.066,33.406,52.961,33.406
			c36.519,0,60.055-28.119,60.055-64.645c0-4.125,12.619-7.428,13.375-7.527c0.764,4.293,1.173,8.723,1.173,13.242
			c0,41.201-33.411,74.605-74.603,74.605c-27.61,0-51.721-15.012-64.626-37.32C25.145,125.752,38.009,117.723,40.283,120.543z"/>
		<linearGradient id="SVGID_4_" gradientUnits="userSpaceOnUse" x1="13.731" y1="42.8027" x2="90.2547" y2="92.2148">
			<stop  offset="0.0217" style="stop-color:#FFFFFF"/>
			<stop  offset="0.2933" style="stop-color:#FAD964"/>
			<stop  offset="0.5868" style="stop-color:#F4D15E"/>
			<stop  offset="0.6492" style="stop-color:#BBA049"/>
			<stop  offset="0.7163" style="stop-color:#857235"/>
			<stop  offset="0.782" style="stop-color:#584C25"/>
			<stop  offset="0.8446" style="stop-color:#352E18"/>
			<stop  offset="0.9034" style="stop-color:#1B180F"/>
			<stop  offset="0.9568" style="stop-color:#0C0B09"/>
			<stop  offset="1" style="stop-color:#070707"/>
		</linearGradient>
		<path opacity="0.9" fill="url(#SVGID_4_)" d="M54.755,139.193c-16.646-16.297-24.794-35.904-18.212-59.91
			c9.66-35.219,43.004-50.48,78.226-40.822c3.979,1.092,10.503-10.205,10.798-10.904c-3.938-1.873-8.102-3.439-12.461-4.635
			C73.372,12.025,32.32,35.412,21.429,75.139c-7.302,26.625,0.797,53.848,18.898,72.193
			C45.729,152.414,56.871,142.131,54.755,139.193z"/>
		<path fill="#FFFFFF" d="M20.363,81.789c-12.125,81.568,97.222,118.523,139.146,50.926
			C119.232,205.875,3.834,163.787,20.363,81.789z"/>
		<path opacity="0.4" fill="#FFFFFF" d="M20.363,81.789c-12.125,81.568,97.222,118.523,139.146,50.926
			C119.232,205.875,3.834,163.787,20.363,81.789z"/>
		<path fill="#FFFFFF" d="M43.912,39.643c36.142-31.004,78.974-23.025,107.365,7.793c18.883,20.498,24.571,52.67,9.823,82.881
			C201.58,57.275,104.518-17.996,43.912,39.643z"/>
		<g>
			
				<linearGradient id="SVGID_5_" gradientUnits="userSpaceOnUse" x1="-282.6812" y1="-417.4668" x2="-181.0128" y2="-290.2175" gradientTransform="matrix(-1 0 0 -1 -125.2803 -243.4443)">
				<stop  offset="0" style="stop-color:#FCCF61"/>
				<stop  offset="0.0645" style="stop-color:#FFFFFF"/>
				<stop  offset="0.1935" style="stop-color:#F4D271"/>
				<stop  offset="0.3738" style="stop-color:#FFFFFF"/>
				<stop  offset="0.4923" style="stop-color:#FAD964"/>
				<stop  offset="0.6485" style="stop-color:#F4D15E"/>
				<stop  offset="0.7642" style="stop-color:#C5973B"/>
				<stop  offset="0.871" style="stop-color:#9F681E"/>
				<stop  offset="0.9241" style="stop-color:#905613"/>
			</linearGradient>
			<path fill="url(#SVGID_5_)" d="M36.448,95.135c0-31.984,25.932-57.928,57.926-57.928c31.986,0,57.929,25.943,57.929,57.928
				c0,31.994-25.942,57.928-57.929,57.928C62.38,153.063,36.448,127.129,36.448,95.135z"/>
			<linearGradient id="SVGID_6_" gradientUnits="userSpaceOnUse" x1="106.6924" y1="183.8721" x2="85.2663" y2="29.5138">
				<stop  offset="0" style="stop-color:#D8A73B"/>
				<stop  offset="0.0841" style="stop-color:#BF8729"/>
				<stop  offset="0.1413" style="stop-color:#B2761F"/>
				<stop  offset="0.1528" style="stop-color:#B1741E"/>
				<stop  offset="0.2181" style="stop-color:#AD701D"/>
				<stop  offset="0.3007" style="stop-color:#B77D26"/>
				<stop  offset="0.3921" style="stop-color:#C69133"/>
				<stop  offset="0.6615" style="stop-color:#905613"/>
				<stop  offset="0.8817" style="stop-color:#905613"/>
				<stop  offset="1" style="stop-color:#3F1400"/>
			</linearGradient>
			<path fill="url(#SVGID_6_)" d="M94.374,153.063c31.986,0,57.929-25.934,57.929-57.928c0-31.984-25.942-57.928-57.929-57.928
				c-31.994,0-57.926,25.943-57.926,57.928C36.448,127.129,62.38,153.063,94.374,153.063z M94.374,38.357
				c31.302,0,56.778,25.479,56.778,56.777c0,31.301-25.477,56.777-56.778,56.777c-31.31,0-56.778-25.477-56.778-56.777
				C37.596,63.836,63.064,38.357,94.374,38.357z"/>
			
				<linearGradient id="SVGID_7_" gradientUnits="userSpaceOnUse" x1="-185.0073" y1="-348.3164" x2="-216.9753" y2="-315.3254" gradientTransform="matrix(-0.9977 0.068 -0.068 -0.9977 -107.178 -250.244)">
				<stop  offset="0" style="stop-color:#FFFFFF"/>
				<stop  offset="0.0811" style="stop-color:#EBD8B7"/>
				<stop  offset="0.1677" style="stop-color:#D7B270"/>
				<stop  offset="0.2302" style="stop-color:#CB9A44"/>
				<stop  offset="0.2617" style="stop-color:#C69133"/>
				<stop  offset="0.6615" style="stop-color:#905613"/>
				<stop  offset="0.7268" style="stop-color:#885011"/>
				<stop  offset="0.828" style="stop-color:#723E0C"/>
				<stop  offset="0.9518" style="stop-color:#4F2104"/>
				<stop  offset="1" style="stop-color:#3F1400"/>
			</linearGradient>
			<path opacity="0.8" fill="url(#SVGID_7_)" d="M54.114,56.354c43.26-42.533,112.59,6.467,90.563,60.676
				C170.719,61.4,95.719,11.014,54.114,56.354z"/>
			<linearGradient id="SVGID_8_" gradientUnits="userSpaceOnUse" x1="21.7837" y1="13.0767" x2="142.4724" y2="149.5072">
				<stop  offset="0" style="stop-color:#FCCF61"/>
				<stop  offset="0.3423" style="stop-color:#D8A73B"/>
				<stop  offset="0.4903" style="stop-color:#BA8126"/>
				<stop  offset="0.5759" style="stop-color:#AD701D"/>
				<stop  offset="0.6724" style="stop-color:#C28D31"/>
				<stop  offset="0.8645" style="stop-color:#F4D15E"/>
				<stop  offset="0.8846" style="stop-color:#EFCB5A"/>
				<stop  offset="0.9114" style="stop-color:#E1BA50"/>
				<stop  offset="0.942" style="stop-color:#CB9E3F"/>
				<stop  offset="0.9752" style="stop-color:#AB7828"/>
				<stop  offset="1" style="stop-color:#905613"/>
			</linearGradient>
			<path fill="url(#SVGID_8_)" d="M38.746,95.135c0-30.717,24.91-55.627,55.628-55.627s55.628,24.91,55.628,55.627
				s-24.91,55.629-55.628,55.629S38.746,125.852,38.746,95.135z"/>
		</g>
	</g>
	<g display="none">
		<linearGradient id="SVGID_9_" gradientUnits="userSpaceOnUse" x1="98.7314" y1="4.104" x2="98.7314" y2="197.5315">
			<stop  offset="0" style="stop-color:#FCCF61"/>
			<stop  offset="0.2817" style="stop-color:#905613"/>
			<stop  offset="0.3203" style="stop-color:#965E18"/>
			<stop  offset="0.3803" style="stop-color:#A87425"/>
			<stop  offset="0.4539" style="stop-color:#C5973B"/>
			<stop  offset="0.5378" style="stop-color:#EDC95A"/>
			<stop  offset="0.5633" style="stop-color:#FAD964"/>
			<stop  offset="0.8598" style="stop-color:#9A621A"/>
		</linearGradient>
		<path display="inline" fill="url(#SVGID_9_)" d="M103.49,155.426l0.028,0.691l-3.869,0.164l0.425,10.006l-1.798,0.076
			l-0.426-10.006l-3.876,0.164l-0.031-0.691L103.49,155.426z"/>
		<linearGradient id="SVGID_10_" gradientUnits="userSpaceOnUse" x1="113.8086" y1="4.0635" x2="113.8086" y2="197.5405">
			<stop  offset="0" style="stop-color:#FCCF61"/>
			<stop  offset="0.2817" style="stop-color:#905613"/>
			<stop  offset="0.3203" style="stop-color:#965E18"/>
			<stop  offset="0.3803" style="stop-color:#A87425"/>
			<stop  offset="0.4539" style="stop-color:#C5973B"/>
			<stop  offset="0.5378" style="stop-color:#EDC95A"/>
			<stop  offset="0.5633" style="stop-color:#FAD964"/>
			<stop  offset="0.8598" style="stop-color:#9A621A"/>
		</linearGradient>
		<path display="inline" fill="url(#SVGID_10_)" d="M110.391,159.643c0.191,0.729,0.474,1.352,0.842,1.869
			c0.369,0.516,0.797,0.924,1.284,1.223c0.487,0.297,1.02,0.484,1.599,0.557s1.171,0.027,1.781-0.133
			c0.361-0.096,0.691-0.258,0.991-0.486c0.3-0.232,0.566-0.498,0.797-0.801c0.23-0.301,0.42-0.625,0.574-0.969
			c0.153-0.346,0.264-0.684,0.335-1.016l0.854,0.275c-0.123,0.404-0.284,0.805-0.489,1.201c-0.205,0.4-0.466,0.771-0.784,1.117
			c-0.314,0.348-0.694,0.658-1.138,0.934c-0.44,0.275-0.958,0.492-1.553,0.648c-0.568,0.15-1.124,0.227-1.665,0.229
			s-1.053-0.059-1.537-0.184c-0.487-0.123-0.94-0.307-1.363-0.551c-0.42-0.242-0.799-0.533-1.135-0.871s-0.625-0.719-0.871-1.143
			c-0.244-0.422-0.431-0.877-0.559-1.363c-0.129-0.484-0.189-0.973-0.185-1.465c0.007-0.492,0.074-0.971,0.202-1.438
			c0.128-0.465,0.32-0.912,0.574-1.338c0.251-0.428,0.561-0.818,0.925-1.172c0.366-0.354,0.786-0.664,1.261-0.932
			c0.477-0.268,1.004-0.48,1.583-0.633c0.548-0.145,1.076-0.205,1.578-0.18c0.503,0.027,0.979,0.113,1.427,0.258
			c0.449,0.143,0.864,0.338,1.246,0.58c0.385,0.244,0.728,0.51,1.029,0.801l-0.617,0.703c-0.656-0.721-1.304-1.207-1.941-1.457
			c-0.639-0.252-1.305-0.285-1.999-0.102c-0.6,0.158-1.13,0.416-1.594,0.77c-0.461,0.357-0.833,0.787-1.112,1.297
			c-0.279,0.508-0.453,1.082-0.522,1.719C110.137,158.23,110.197,158.914,110.391,159.643z"/>
	</g>
	<g>
		<linearGradient id="SVGID_11_" gradientUnits="userSpaceOnUse" x1="61.0332" y1="4.0879" x2="61.0332" y2="197.5291">
			<stop  offset="0" style="stop-color:#FCCF61"/>
			<stop  offset="0.2817" style="stop-color:#905613"/>
			<stop  offset="0.3203" style="stop-color:#965E18"/>
			<stop  offset="0.3803" style="stop-color:#A87425"/>
			<stop  offset="0.4539" style="stop-color:#C5973B"/>
			<stop  offset="0.5378" style="stop-color:#EDC95A"/>
			<stop  offset="0.5633" style="stop-color:#FAD964"/>
			<stop  offset="0.8598" style="stop-color:#9A621A"/>
			<stop  offset="0.9728" style="stop-color:#AC5218"/>
			<stop  offset="1" style="stop-color:#B14E18"/>
		</linearGradient>
		<path display="none" fill="url(#SVGID_11_)" d="M55.16,34.012l3.773-2.084c0.498-0.275,0.986-0.473,1.466-0.592
			c0.479-0.117,0.923-0.158,1.333-0.123c0.409,0.039,0.775,0.152,1.099,0.344c0.32,0.189,0.576,0.457,0.767,0.797
			c0.141,0.256,0.238,0.5,0.297,0.73c0.059,0.232,0.068,0.471,0.035,0.715c-0.035,0.244-0.12,0.504-0.253,0.781
			c-0.136,0.275-0.325,0.584-0.569,0.926l0.014,0.025c0.363-0.129,0.715-0.205,1.055-0.227c0.344-0.023,0.664,0.012,0.964,0.104
			s0.571,0.238,0.817,0.439s0.456,0.459,0.63,0.771c0.194,0.355,0.3,0.73,0.317,1.125c0.016,0.395-0.056,0.785-0.212,1.172
			c-0.159,0.387-0.405,0.756-0.735,1.109c-0.333,0.354-0.748,0.666-1.245,0.941l-4.374,2.416L55.16,34.012z M59.064,37.359
			l2.006-1.105c0.313-0.176,0.569-0.375,0.767-0.6c0.197-0.227,0.335-0.467,0.415-0.719c0.079-0.252,0.105-0.51,0.074-0.773
			c-0.033-0.264-0.117-0.521-0.262-0.779c-0.15-0.273-0.338-0.494-0.566-0.66c-0.228-0.166-0.494-0.27-0.801-0.309
			c-0.309-0.037-0.654-0.006-1.038,0.096c-0.382,0.1-0.81,0.281-1.281,0.541l-1.299,0.717L59.064,37.359z M61.535,41.828
			l1.701-0.941c0.458-0.252,0.83-0.516,1.117-0.789c0.289-0.273,0.499-0.549,0.633-0.828c0.133-0.277,0.189-0.557,0.174-0.838
			c-0.018-0.279-0.1-0.551-0.246-0.818c-0.164-0.295-0.363-0.545-0.6-0.748s-0.513-0.34-0.83-0.406
			c-0.318-0.068-0.68-0.061-1.084,0.025c-0.404,0.082-0.858,0.264-1.36,0.539l-1.655,0.916L61.535,41.828z"/>
		<linearGradient id="SVGID_12_" gradientUnits="userSpaceOnUse" x1="69.6934" y1="4.0889" x2="69.6934" y2="197.5199">
			<stop  offset="0" style="stop-color:#FCCF61"/>
			<stop  offset="0.2817" style="stop-color:#905613"/>
			<stop  offset="0.3203" style="stop-color:#965E18"/>
			<stop  offset="0.3803" style="stop-color:#A87425"/>
			<stop  offset="0.4539" style="stop-color:#C5973B"/>
			<stop  offset="0.5378" style="stop-color:#EDC95A"/>
			<stop  offset="0.5633" style="stop-color:#FAD964"/>
			<stop  offset="0.8598" style="stop-color:#9A621A"/>
			<stop  offset="0.9728" style="stop-color:#AC5218"/>
			<stop  offset="1" style="stop-color:#B14E18"/>
		</linearGradient>
		<path display="none" fill="url(#SVGID_12_)" d="M66.92,28.158l1.679-0.65l3.868,9.986l-1.678,0.646L66.92,28.158z"/>
		
			<linearGradient id="SVGID_13_" gradientUnits="userSpaceOnUse" x1="75.4429" y1="135.0107" x2="75.4429" y2="328.4418" gradientTransform="matrix(0.7737 0.6336 -0.6336 0.7737 121.4482 -16.1263)">
			<stop  offset="0" style="stop-color:#FCCF61"/>
			<stop  offset="0.2817" style="stop-color:#905613"/>
			<stop  offset="0.3203" style="stop-color:#965E18"/>
			<stop  offset="0.3803" style="stop-color:#A87425"/>
			<stop  offset="0.4539" style="stop-color:#C5973B"/>
			<stop  offset="0.5378" style="stop-color:#EDC95A"/>
			<stop  offset="0.5633" style="stop-color:#FAD964"/>
			<stop  offset="0.8598" style="stop-color:#9A621A"/>
			<stop  offset="0.9728" style="stop-color:#AC5218"/>
			<stop  offset="1" style="stop-color:#B14E18"/>
		</linearGradient>
		<path display="none" fill="url(#SVGID_13_)" d="M76.879,152.998l1.711,0.561l-3.335,10.178l-1.707-0.563L76.879,152.998z"/>
		<linearGradient id="SVGID_14_" gradientUnits="userSpaceOnUse" x1="77.3477" y1="4.0903" x2="77.3476" y2="197.5203">
			<stop  offset="0" style="stop-color:#FCCF61"/>
			<stop  offset="0.2817" style="stop-color:#905613"/>
			<stop  offset="0.3203" style="stop-color:#965E18"/>
			<stop  offset="0.3803" style="stop-color:#A87425"/>
			<stop  offset="0.4539" style="stop-color:#C5973B"/>
			<stop  offset="0.5378" style="stop-color:#EDC95A"/>
			<stop  offset="0.5633" style="stop-color:#FAD964"/>
			<stop  offset="0.8598" style="stop-color:#9A621A"/>
			<stop  offset="0.9728" style="stop-color:#AC5218"/>
			<stop  offset="1" style="stop-color:#B14E18"/>
		</linearGradient>
		<path display="none" fill="url(#SVGID_14_)" d="M81.912,23.744l0.16,0.672l-3.766,0.906l2.344,9.736L78.9,35.48l-2.342-9.738
			l-3.773,0.91l-0.162-0.674L81.912,23.744z"/>
		<linearGradient id="SVGID_15_" gradientUnits="userSpaceOnUse" x1="91.8809" y1="4.0869" x2="91.8809" y2="197.539">
			<stop  offset="0" style="stop-color:#FCCF61"/>
			<stop  offset="0.2817" style="stop-color:#905613"/>
			<stop  offset="0.3203" style="stop-color:#965E18"/>
			<stop  offset="0.3803" style="stop-color:#A87425"/>
			<stop  offset="0.4539" style="stop-color:#C5973B"/>
			<stop  offset="0.5378" style="stop-color:#EDC95A"/>
			<stop  offset="0.5633" style="stop-color:#FAD964"/>
			<stop  offset="0.8598" style="stop-color:#9A621A"/>
			<stop  offset="0.9728" style="stop-color:#AC5218"/>
			<stop  offset="1" style="stop-color:#B14E18"/>
		</linearGradient>
		<path display="none" fill="url(#SVGID_15_)" d="M88.573,28.383c0.028,0.752,0.167,1.422,0.415,2.008
			c0.248,0.584,0.576,1.076,0.986,1.473c0.41,0.398,0.889,0.695,1.438,0.893s1.138,0.285,1.768,0.26
			c0.375-0.014,0.732-0.102,1.074-0.26c0.343-0.158,0.66-0.361,0.95-0.605c0.292-0.244,0.548-0.518,0.773-0.822
			c0.224-0.303,0.407-0.607,0.549-0.916l0.771,0.455c-0.205,0.367-0.453,0.723-0.74,1.066c-0.287,0.346-0.622,0.65-1.007,0.92
			c-0.384,0.27-0.822,0.488-1.312,0.66c-0.492,0.172-1.045,0.271-1.66,0.295c-0.587,0.021-1.146-0.025-1.674-0.141
			c-0.527-0.115-1.014-0.287-1.463-0.516c-0.445-0.225-0.848-0.504-1.207-0.834c-0.358-0.328-0.666-0.697-0.92-1.1
			c-0.253-0.402-0.453-0.838-0.599-1.305c-0.146-0.467-0.229-0.951-0.246-1.451c-0.021-0.502,0.028-0.992,0.141-1.471
			s0.282-0.932,0.51-1.357c0.226-0.428,0.511-0.822,0.851-1.184c0.341-0.361,0.729-0.674,1.161-0.939
			c0.433-0.264,0.912-0.477,1.433-0.635c0.522-0.158,1.083-0.25,1.683-0.271c0.569-0.021,1.095,0.035,1.579,0.17
			c0.483,0.137,0.93,0.324,1.337,0.563s0.769,0.518,1.089,0.84c0.32,0.32,0.598,0.656,0.83,1.006l-0.756,0.553
			c-0.481-0.85-1.01-1.465-1.578-1.848c-0.566-0.385-1.209-0.563-1.927-0.535c-0.62,0.021-1.194,0.158-1.722,0.404
			c-0.53,0.244-0.986,0.586-1.371,1.02c-0.382,0.436-0.679,0.957-0.887,1.564C88.635,26.949,88.545,27.631,88.573,28.383z"/>
		<linearGradient id="SVGID_16_" gradientUnits="userSpaceOnUse" x1="107.0029" y1="4.0884" x2="107.0029" y2="197.5294">
			<stop  offset="0" style="stop-color:#FCCF61"/>
			<stop  offset="0.2817" style="stop-color:#905613"/>
			<stop  offset="0.3203" style="stop-color:#965E18"/>
			<stop  offset="0.3803" style="stop-color:#A87425"/>
			<stop  offset="0.4539" style="stop-color:#C5973B"/>
			<stop  offset="0.5378" style="stop-color:#EDC95A"/>
			<stop  offset="0.5633" style="stop-color:#FAD964"/>
			<stop  offset="0.8598" style="stop-color:#9A621A"/>
			<stop  offset="0.9728" style="stop-color:#AC5218"/>
			<stop  offset="1" style="stop-color:#B14E18"/>
		</linearGradient>
		<path display="none" fill="url(#SVGID_16_)" d="M105.911,34.906c-0.543-0.109-1.05-0.277-1.521-0.508s-0.899-0.51-1.278-0.836
			c-0.38-0.324-0.713-0.691-0.997-1.1s-0.51-0.844-0.677-1.305c-0.164-0.459-0.269-0.941-0.313-1.439
			c-0.041-0.5-0.013-1.006,0.088-1.518c0.1-0.504,0.264-0.973,0.488-1.41c0.229-0.436,0.503-0.83,0.828-1.184
			s0.697-0.662,1.115-0.92c0.417-0.262,0.86-0.467,1.334-0.619c0.475-0.152,0.974-0.244,1.496-0.273
			c0.523-0.031,1.057,0.008,1.6,0.113c0.543,0.107,1.051,0.275,1.524,0.5c0.472,0.227,0.899,0.5,1.278,0.82
			c0.382,0.32,0.715,0.68,1.002,1.078c0.287,0.4,0.515,0.822,0.682,1.273c0.169,0.451,0.273,0.922,0.317,1.41
			c0.046,0.49,0.019,0.986-0.079,1.488c-0.1,0.508-0.264,0.986-0.494,1.434c-0.229,0.449-0.508,0.857-0.836,1.221
			s-0.699,0.68-1.119,0.949c-0.418,0.27-0.867,0.484-1.341,0.641c-0.474,0.158-0.974,0.254-1.499,0.291
			C106.987,35.047,106.455,35.014,105.911,34.906z M106.014,34.377c0.6,0.119,1.153,0.098,1.666-0.063
			c0.512-0.162,0.971-0.434,1.373-0.82c0.402-0.385,0.746-0.871,1.029-1.453c0.285-0.584,0.498-1.24,0.641-1.971
			c0.142-0.719,0.189-1.393,0.146-2.027c-0.046-0.633-0.185-1.197-0.412-1.695c-0.229-0.496-0.551-0.91-0.967-1.242
			c-0.414-0.334-0.92-0.559-1.519-0.678c-0.612-0.119-1.177-0.104-1.688,0.045c-0.513,0.15-0.969,0.412-1.366,0.787
			c-0.397,0.373-0.732,0.844-1.009,1.414c-0.277,0.57-0.487,1.213-0.628,1.932c-0.144,0.73-0.197,1.42-0.159,2.064
			c0.036,0.648,0.166,1.225,0.393,1.734c0.223,0.51,0.543,0.936,0.958,1.277C104.887,34.025,105.401,34.258,106.014,34.377z"/>
		<linearGradient id="SVGID_17_" gradientUnits="userSpaceOnUse" x1="117.6104" y1="4.0933" x2="117.6103" y2="197.5036">
			<stop  offset="0" style="stop-color:#FCCF61"/>
			<stop  offset="0.2817" style="stop-color:#905613"/>
			<stop  offset="0.3203" style="stop-color:#965E18"/>
			<stop  offset="0.3803" style="stop-color:#A87425"/>
			<stop  offset="0.4539" style="stop-color:#C5973B"/>
			<stop  offset="0.5378" style="stop-color:#EDC95A"/>
			<stop  offset="0.5633" style="stop-color:#FAD964"/>
			<stop  offset="0.8598" style="stop-color:#9A621A"/>
			<stop  offset="0.9728" style="stop-color:#AC5218"/>
			<stop  offset="1" style="stop-color:#B14E18"/>
		</linearGradient>
		<path display="none" fill="url(#SVGID_17_)" d="M118.684,27.135l1.682,0.643l-3.828,9.998l-1.682-0.643L118.684,27.135z"/>
		
			<linearGradient id="SVGID_18_" gradientUnits="userSpaceOnUse" x1="85.188" y1="126.5732" x2="85.188" y2="320.0434" gradientTransform="matrix(0.9376 -0.3478 0.3478 0.9376 -49.916 40.7069)">
			<stop  offset="0" style="stop-color:#FCCF61"/>
			<stop  offset="0.2817" style="stop-color:#905613"/>
			<stop  offset="0.3203" style="stop-color:#965E18"/>
			<stop  offset="0.3803" style="stop-color:#A87425"/>
			<stop  offset="0.4539" style="stop-color:#C5973B"/>
			<stop  offset="0.5378" style="stop-color:#EDC95A"/>
			<stop  offset="0.5633" style="stop-color:#FAD964"/>
			<stop  offset="0.8598" style="stop-color:#9A621A"/>
			<stop  offset="0.9728" style="stop-color:#AC5218"/>
			<stop  offset="1" style="stop-color:#B14E18"/>
		</linearGradient>
		<path display="none" fill="url(#SVGID_18_)" d="M81.831,154.376l0.997,0.163l5.642,8.869l0.069,0.013l1.281-7.721l0.78,0.129
			l-1.792,10.814l-0.411-0.069l-6.076-9.834l-0.062-0.011l-1.382,8.341l-0.793-0.13L81.831,154.376z"/>
		
			<linearGradient id="SVGID_19_" gradientUnits="userSpaceOnUse" x1="169.0488" y1="26.8149" x2="169.0488" y2="220.2987" gradientTransform="matrix(0.9981 0.0609 -0.0609 0.9981 -36.4685 -32.5409)">
			<stop  offset="0" style="stop-color:#FCCF61"/>
			<stop  offset="0.2817" style="stop-color:#905613"/>
			<stop  offset="0.3203" style="stop-color:#965E18"/>
			<stop  offset="0.3803" style="stop-color:#A87425"/>
			<stop  offset="0.4539" style="stop-color:#C5973B"/>
			<stop  offset="0.5378" style="stop-color:#EDC95A"/>
			<stop  offset="0.5633" style="stop-color:#FAD964"/>
			<stop  offset="0.8598" style="stop-color:#9A621A"/>
			<stop  offset="0.9728" style="stop-color:#AC5218"/>
			<stop  offset="1" style="stop-color:#B14E18"/>
		</linearGradient>
		<path display="none" fill="url(#SVGID_19_)" d="M127.855,30.213l0.846,0.552l1.575,10.393l0.058,0.04l4.293-6.544l0.66,0.433
			l-6.01,9.167l-0.349-0.23l-1.581-11.45l-0.053-0.035l-4.637,7.07l-0.672-0.439L127.855,30.213z"/>
	</g>
	<g>
		<g>
			<linearGradient id="SVGID_20_" gradientUnits="userSpaceOnUse" x1="175.0586" y1="146.4727" x2="77.0016" y2="6.1102">
				<stop  offset="0" style="stop-color:#FCCF61"/>
				<stop  offset="0.2817" style="stop-color:#905613"/>
				<stop  offset="0.3717" style="stop-color:#965E18"/>
				<stop  offset="0.5113" style="stop-color:#A87425"/>
				<stop  offset="0.6829" style="stop-color:#C5973B"/>
				<stop  offset="0.8784" style="stop-color:#EDC95A"/>
				<stop  offset="0.9377" style="stop-color:#FAD964"/>
			</linearGradient>
			<path fill="url(#SVGID_20_)" d="M138.185,148.172c-0.551,0-1.099-0.23-1.489-0.68c-0.712-0.822-0.622-2.064,0.197-2.777
				c14.413-12.486,22.676-30.559,22.676-49.58c0-10.93-2.741-21.752-7.93-31.293c-0.521-0.955-0.166-2.148,0.787-2.668
				c0.955-0.516,2.151-0.166,2.669,0.789c5.501,10.115,8.409,21.586,8.409,33.172c0,20.164-8.76,39.318-24.033,52.555
				C139.1,148.014,138.641,148.172,138.185,148.172z"/>
			<linearGradient id="SVGID_21_" gradientUnits="userSpaceOnUse" x1="104.584" y1="195.7061" x2="6.5259" y2="55.3421">
				<stop  offset="0" style="stop-color:#FCCF61"/>
				<stop  offset="0.2817" style="stop-color:#905613"/>
				<stop  offset="0.3717" style="stop-color:#965E18"/>
				<stop  offset="0.5113" style="stop-color:#A87425"/>
				<stop  offset="0.6829" style="stop-color:#C5973B"/>
				<stop  offset="0.8784" style="stop-color:#EDC95A"/>
				<stop  offset="0.9377" style="stop-color:#FAD964"/>
			</linearGradient>
			<path fill="url(#SVGID_21_)" d="M49.751,148.172c-0.456,0-0.915-0.158-1.286-0.482c-15.275-13.234-24.038-32.391-24.038-52.555
				c0-11.586,2.91-23.057,8.414-33.172c0.518-0.957,1.714-1.307,2.667-0.789c0.956,0.52,1.31,1.713,0.789,2.668
				c-5.191,9.543-7.935,20.363-7.935,31.293c0,19.021,8.265,37.094,22.681,49.58c0.819,0.713,0.909,1.955,0.197,2.777
				C50.85,147.941,50.302,148.172,49.751,148.172z"/>
		</g>
		<linearGradient id="SVGID_22_" gradientUnits="userSpaceOnUse" x1="148.6885" y1="103.8955" x2="148.6885" y2="124.5673">
			<stop  offset="0.0806" style="stop-color:#FFFFFF"/>
			<stop  offset="0.3617" style="stop-color:#A77224"/>
		</linearGradient>
		<path fill="url(#SVGID_22_)" d="M136.893,144.715c0,0,0.975-0.99,2.678-2.727c0.797-0.916,1.84-1.943,2.885-3.27
			c0.525-0.658,1.105-1.34,1.679-2.088c0.563-0.754,1.155-1.547,1.776-2.375c0.596-0.842,1.178-1.746,1.803-2.666
			c0.615-0.924,1.172-1.934,1.786-2.939c0.6-1.018,1.128-2.111,1.714-3.199c0.531-1.115,1.074-2.256,1.627-3.416
			c0.479-1.191,1.008-2.385,1.466-3.625c0.41-1.256,0.928-2.492,1.284-3.791c0.392-1.287,0.791-2.584,1.084-3.916
			c0.348-1.318,0.609-2.66,0.848-4.006c0.522-2.686,0.805-5.41,1.004-8.096c0.023-1.336,0.115-2.701,0.11-3.98
			c-0.036-1.334-0.022-2.672-0.1-3.953c-0.103-1.271-0.202-2.523-0.303-3.748c-0.161-1.227-0.32-2.428-0.474-3.598
			c-0.42-2.32-0.836-4.52-1.404-6.506c-0.243-1.004-0.516-1.957-0.817-2.848c-0.279-0.902-0.543-1.758-0.794-2.561
			c-0.598-1.572-1.104-2.953-1.563-4.076c-0.981-2.221-1.542-3.49-1.542-3.49s0.687,1.211,1.889,3.328
			c0.551,1.088,1.17,2.432,1.9,3.973c0.603,1.588,1.43,3.338,1.991,5.363c0.677,1.99,1.206,4.207,1.753,6.557
			c0.215,1.188,0.438,2.408,0.663,3.654c0.177,1.26,0.284,2.563,0.433,3.883c0.11,1.313,0.131,2.623,0.2,3.967
			c0.049,1.398-0.022,2.742-0.046,4.137c-0.18,2.766-0.446,5.576-0.967,8.346c-0.256,1.387-0.537,2.766-0.906,4.119
			c-0.315,1.369-0.735,2.703-1.15,4.025c-0.822,2.648-1.901,5.16-2.988,7.561c-0.604,1.172-1.152,2.348-1.777,3.451
			c-0.656,1.086-1.248,2.176-1.912,3.184c-0.676,0.998-1.291,1.998-1.965,2.91c-0.682,0.906-1.316,1.797-1.968,2.621
			c-0.671,0.807-1.316,1.578-1.929,2.313c-0.639,0.711-1.279,1.354-1.863,1.975c-1.152,1.248-2.298,2.211-3.166,3.063
			c-0.908,0.811-1.668,1.391-2.163,1.813C137.162,144.494,136.893,144.715,136.893,144.715z"/>
		<linearGradient id="SVGID_23_" gradientUnits="userSpaceOnUse" x1="35.9888" y1="103.8965" x2="35.9888" y2="124.5678">
			<stop  offset="0.0806" style="stop-color:#FFFFFF"/>
			<stop  offset="0.3617" style="stop-color:#A77224"/>
		</linearGradient>
		<path fill="url(#SVGID_23_)" d="M48.465,147.689c0,0-0.284-0.232-0.817-0.674c-0.525-0.447-1.329-1.066-2.288-1.926
			c-0.917-0.904-2.129-1.928-3.349-3.254c-0.614-0.658-1.294-1.34-1.97-2.096c-0.646-0.779-1.328-1.598-2.04-2.453
			c-0.687-0.875-1.36-1.818-2.081-2.779c-0.712-0.969-1.359-2.027-2.077-3.086c-0.7-1.07-1.327-2.225-2.02-3.377
			c-0.661-1.168-1.242-2.414-1.883-3.656c-1.147-2.543-2.288-5.205-3.159-8.012c-0.438-1.4-0.884-2.813-1.217-4.262
			c-0.39-1.436-0.688-2.896-0.959-4.365c-0.553-2.934-0.835-5.908-1.027-8.838c-0.022-1.477-0.1-2.902-0.049-4.383
			c0.074-1.422,0.096-2.813,0.208-4.203c0.156-1.396,0.271-2.775,0.456-4.111c0.238-1.322,0.472-2.615,0.699-3.873
			c0.574-2.49,1.135-4.838,1.848-6.949c0.592-2.145,1.468-4.002,2.104-5.686c0.769-1.633,1.422-3.061,2.004-4.215
			c1.268-2.246,1.993-3.529,1.993-3.529s-0.6,1.342-1.647,3.693c-0.489,1.188-1.03,2.652-1.668,4.316
			c-0.267,0.852-0.551,1.758-0.851,2.713c-0.32,0.945-0.61,1.955-0.871,3.02c-0.607,2.105-1.048,4.438-1.502,6.898
			c-0.163,1.24-0.333,2.514-0.507,3.814c-0.105,1.301-0.215,2.629-0.326,3.979c-0.079,1.359-0.068,2.775-0.107,4.189
			c-0.008,1.359,0.09,2.807,0.115,4.225c0.211,2.85,0.508,5.74,1.063,8.588c0.254,1.428,0.53,2.854,0.899,4.25
			c0.313,1.414,0.735,2.789,1.153,4.154c0.376,1.381,0.927,2.691,1.362,4.023c0.487,1.313,1.049,2.58,1.559,3.844
			c0.586,1.229,1.163,2.439,1.729,3.623c0.622,1.152,1.187,2.313,1.821,3.389c0.653,1.066,1.243,2.137,1.898,3.115
			c0.664,0.975,1.284,1.936,1.92,2.826c0.655,0.877,1.285,1.717,1.885,2.518c0.61,0.791,1.225,1.512,1.783,2.207
			c1.112,1.404,2.222,2.492,3.067,3.463C47.43,146.643,48.465,147.689,48.465,147.689z"/>
	</g>
</g>
<g>
	<g>
		<g>
			<path fill="#77310E" d="M48.793,49.597c0.618-0.594,0.933-0.885,1.567-1.458c0.281-0.253,0.653-0.356,0.942-0.025
				c0.291,0.33,0.146,0.685-0.128,0.933c-1.661,1.516-2.467,2.309-4.035,3.971c-0.258,0.276-0.62,0.419-0.944,0.125
				c-0.325-0.295-0.209-0.674,0.052-0.956c0.594-0.636,0.894-0.947,1.501-1.562c-1.999-1.991-2.993-2.979-4.992-4.971
				c-0.672,0.681-1.004,1.027-1.664,1.731c-0.291,0.312-0.685,0.49-1.008,0.196c-0.325-0.294-0.18-0.708,0.117-1.025
				c1.803-1.91,2.729-2.823,4.638-4.565c0.317-0.285,0.724-0.415,1.014-0.085c0.289,0.329,0.112,0.711-0.2,0.991
				c-0.702,0.635-1.048,0.958-1.737,1.617C45.87,46.55,46.84,47.561,48.793,49.597z"/>
			<path fill="#77310E" d="M53.737,35.884c-0.215-0.324-0.148-0.634,0.332-0.946c0.48-0.311,0.79-0.24,0.996,0.089
				c1.887,2.999,2.829,4.504,4.723,7.514c-0.616,0.39-0.923,0.59-1.533,0.997c-2.852-1.605-4.329-2.354-7.374-3.718
				c-0.002-0.004-0.004-0.005-0.007-0.009c-0.01,0.007-0.013,0.01-0.024,0.018c1.617,2.135,2.427,3.207,4.046,5.345
				c0.236,0.312,0.213,0.605-0.188,0.915c-0.396,0.311-0.688,0.261-0.932-0.045c-2.203-2.782-3.304-4.166-5.512-6.954
				c0.669-0.53,1.009-0.79,1.688-1.301c3.1,1.392,4.591,2.137,7.493,3.767c-0.005,0.003-0.006,0.004-0.012,0.007
				c0.01-0.006,0.015-0.01,0.023-0.016C55.965,39.275,55.222,38.145,53.737,35.884z"/>
			<path fill="#77310E" d="M67.097,35.954c0.386,0.177,0.688,0.353,0.854,0.733c0.358,0.842-0.171,1.573-1.024,1.967
				c-1.088,0.506-1.625,0.77-2.695,1.323c-0.46,0.241-0.9,0.376-1.409,0.311c-0.453-0.059-0.917-0.302-1.126-0.673
				c-0.192-0.339-0.134-0.765,0.303-1.005c0.361-0.198,0.726-0.059,0.879,0.232c0.172,0.323,0.394,0.26,0.74,0.079
				c1.075-0.556,1.617-0.824,2.71-1.334c0.102-0.047,0.43-0.159,0.354-0.325c-0.039-0.089-0.294-0.175-0.375-0.218
				c-2.658-1.131-4.047-1.644-6.901-2.53c-0.437-0.133-0.72-0.253-0.93-0.625c-0.238-0.425-0.185-0.934,0.157-1.425
				c0.283-0.403,0.602-0.577,1.047-0.811c1.186-0.616,1.78-0.911,2.983-1.478c0.542-0.252,1.043-0.373,1.575-0.274
				c0.481,0.09,0.958,0.38,1.126,0.772c0.153,0.36,0.055,0.744-0.443,0.964c-0.415,0.184-0.758,0.088-0.899-0.222
				c-0.171-0.378-0.436-0.327-0.87-0.124c-1.184,0.558-1.77,0.849-2.934,1.455c-0.151,0.079-0.484,0.214-0.385,0.397
				c0.051,0.097,0.271,0.146,0.359,0.182C63.054,34.258,64.437,34.787,67.097,35.954z"/>
			<path fill="#77310E" d="M76.729,33.816c0.345-0.093,0.708-0.01,0.816,0.416c0.106,0.425-0.161,0.671-0.5,0.762
				c-2.306,0.635-3.447,1-5.705,1.822c-1.329-3.559-1.989-5.327-3.318-8.886c2.595-0.946,3.908-1.364,6.559-2.094
				c0.39-0.104,0.795-0.029,0.903,0.395c0.106,0.424-0.204,0.68-0.586,0.782c-2.021,0.553-3.02,0.86-5.01,1.541
				c0.384,1.102,0.577,1.649,0.961,2.751c0.813-0.281,1.223-0.417,2.043-0.676c0.362-0.114,0.75-0.051,0.875,0.369
				c0.125,0.419-0.153,0.682-0.51,0.794c-0.805,0.254-1.207,0.387-2.006,0.663c0.385,1.101,0.576,1.649,0.961,2.751
				C74.004,34.592,74.909,34.315,76.729,33.816z"/>
			<path fill="#77310E" d="M81.861,33.283c0.071,0.385-0.076,0.633-0.548,0.725c-0.476,0.093-0.705-0.084-0.783-0.466
				c-0.72-3.476-1.078-5.206-1.801-8.688c2.034-0.408,3.059-0.582,5.107-0.865c1.212-0.164,2.492,0.396,2.593,1.477
				c0.034,0.334,0.048,0.502,0.082,0.836c0.108,1.138-0.953,1.833-2.098,1.987c-0.527,0.071-0.793,0.108-1.32,0.189
				c1.518,1.358,2.245,2.058,3.644,3.486c0.167,0.166,0.38,0.377,0.404,0.608c0.033,0.339-0.25,0.601-0.623,0.642
				c-0.267,0.029-0.456-0.096-0.625-0.272c-1.723-1.721-2.629-2.562-4.53-4.177c-0.13,0.023-0.196,0.036-0.328,0.06
				C81.366,30.606,81.532,31.5,81.861,33.283z M80.813,27.625c1.291-0.233,1.936-0.336,3.233-0.517
				c0.408-0.057,1.048-0.161,0.99-0.643c-0.038-0.333-0.06-0.5-0.101-0.834c-0.057-0.484-0.684-0.47-1.133-0.408
				c-1.34,0.187-2.003,0.293-3.334,0.534C80.607,26.504,80.673,26.878,80.813,27.625z"/>
			<path fill="#77310E" d="M91.293,24.6c0.006,0.176,0.007,0.262,0.014,0.438c0.012,0.39-0.191,0.615-0.725,0.636
				c-0.539,0.022-0.756-0.185-0.778-0.574c-0.035-0.662-0.051-0.99-0.086-1.653c3.037-0.134,4.559-0.134,7.593-0.001
				c-0.033,0.663-0.054,0.991-0.086,1.654c-0.022,0.39-0.24,0.597-0.775,0.574c-0.536-0.021-0.738-0.246-0.727-0.636
				c0.006-0.175,0.008-0.262,0.014-0.438c-0.584-0.017-0.878-0.023-1.465-0.03c-0.033,3.066-0.049,4.592-0.081,7.653
				c-0.005,0.391-0.193,0.607-0.676,0.607c-0.48,0-0.673-0.216-0.675-0.607c-0.034-3.061-0.047-4.588-0.081-7.653
				C92.174,24.576,91.879,24.583,91.293,24.6z"/>
			<path fill="#77310E" d="M112.815,35.819c-0.965-0.306-1.412-0.815-1.62-1.698c-0.239-1.01-0.363-1.514-0.635-2.524
				c-0.127-0.461-0.17-0.874-0.052-1.334c0.133-0.519,0.326-0.809,0.735-1.207c0.758-0.734,1.142-1.095,1.927-1.811
				c0.728-0.667,1.469-0.799,2.606-0.436c1.004,0.324,1.508,0.495,2.502,0.85c0.323,0.116,0.677,0.404,0.516,0.837
				c-0.153,0.409-0.6,0.427-0.93,0.309c-0.961-0.343-1.447-0.508-2.417-0.822c-0.624-0.199-0.745-0.183-1.155,0.176
				c-0.749,0.659-1.116,0.992-1.842,1.668c-0.273,0.265-0.443,0.445-0.547,0.81c-0.092,0.328-0.023,0.562,0.063,0.89
				c0.234,0.944,0.344,1.413,0.549,2.359c0.117,0.561,0.24,0.634,0.83,0.822c0.852,0.276,1.281,0.421,2.127,0.724
				c0.286,0.103,0.594,0.374,0.432,0.808c-0.152,0.411-0.557,0.445-0.847,0.34C114.165,36.261,113.717,36.108,112.815,35.819z"/>
			<path fill="#77310E" d="M127.214,35.462c0.021,0.555-0.068,0.914-0.322,1.371c-0.288,0.509-0.632,0.732-1.128,1.031
				c-0.895,0.53-1.337,0.804-2.209,1.356c-0.568,0.362-1.256,0.487-1.964,0.137c-0.708-0.35-1.018-0.966-1.075-1.637
				c-0.088-1.028-0.141-1.543-0.26-2.576c-0.063-0.573-0.092-0.983,0.139-1.52c0.207-0.482,0.439-0.767,0.889-1.091
				c0.938-0.65,1.414-0.969,2.379-1.593c0.574-0.365,1.341-0.479,2.129-0.09c0.787,0.39,1.172,1.07,1.234,1.75
				C127.12,33.75,127.156,34.32,127.214,35.462z M125.562,32.506c-0.021-0.229-0.02-0.418-0.311-0.562
				c-0.292-0.143-0.431-0.022-0.628,0.099c-0.881,0.555-1.315,0.838-2.173,1.415c-0.35,0.228-0.552,0.392-0.72,0.757
				c-0.128,0.289-0.143,0.522-0.107,0.833c0.115,1.073,0.162,1.609,0.245,2.678c0.015,0.197,0.013,0.415,0.263,0.537
				c0.25,0.124,0.427-0.006,0.593-0.115c0.901-0.584,1.355-0.872,2.279-1.431c0.266-0.163,0.448-0.313,0.597-0.592
				c0.188-0.354,0.195-0.616,0.162-1.033C125.695,34.06,125.654,33.543,125.562,32.506z"/>
			<path fill="#77310E" d="M131.394,43.855c0.675,0.493,1.014,0.746,1.679,1.259c0.295,0.228,0.457,0.577,0.184,0.92
				c-0.271,0.343-0.643,0.268-0.931,0.045c-1.754-1.344-2.654-1.979-4.48-3.176c-0.301-0.194-0.491-0.517-0.259-0.89
				c0.232-0.372,0.611-0.335,0.919-0.136c0.697,0.452,1.044,0.683,1.729,1.156c1.604-2.323,2.397-3.479,4.004-5.798
				c-0.76-0.525-1.145-0.781-1.918-1.283c-0.342-0.221-0.572-0.564-0.337-0.935c0.231-0.371,0.647-0.314,0.996-0.089
				c2.102,1.376,3.131,2.105,5.15,3.652c0.332,0.257,0.529,0.633,0.257,0.977c-0.272,0.342-0.675,0.241-1-0.012
				c-0.738-0.571-1.111-0.851-1.861-1.397C133.87,40.431,133.047,41.569,131.394,43.855z"/>
			<path fill="#77310E" d="M145.821,46.376c0.279-0.268,0.606-0.252,1.015,0.188c0.409,0.442,0.402,0.765,0.115,1.026
				c-2.615,2.381-3.931,3.58-6.563,5.971c-0.52-0.567-0.783-0.847-1.31-1.397c1.036-3.134,1.489-4.74,2.268-8.004
				c0.003-0.003,0.005-0.005,0.008-0.008c-0.01-0.009-0.012-0.012-0.021-0.021c-1.809,1.972-2.72,2.962-4.533,4.937
				c-0.265,0.287-0.559,0.313-0.94-0.03c-0.379-0.342-0.388-0.638-0.13-0.932c2.342-2.668,3.508-3.997,5.853-6.669
				c0.646,0.573,0.968,0.861,1.602,1.452c-0.79,3.327-1.241,4.949-2.285,8.141c-0.003-0.004-0.008-0.005-0.01-0.01
				c0.009,0.008,0.01,0.013,0.02,0.021C142.879,49.168,143.859,48.236,145.821,46.376z"/>
		</g>
	</g>
</g>
<linearGradient id="SVGID_24_" gradientUnits="userSpaceOnUse" x1="64.3936" y1="63.0137" x2="122.5022" y2="137.0963">
	<stop  offset="0" style="stop-color:#D8A73B"/>
	<stop  offset="0.0841" style="stop-color:#BF8729"/>
	<stop  offset="0.1413" style="stop-color:#B2761F"/>
	<stop  offset="0.1528" style="stop-color:#B1741E"/>
	<stop  offset="0.2181" style="stop-color:#AD701D"/>
	<stop  offset="0.3007" style="stop-color:#B77D26"/>
	<stop  offset="0.3921" style="stop-color:#C69133"/>
	<stop  offset="0.6615" style="stop-color:#905613"/>
	<stop  offset="0.8817" style="stop-color:#905613"/>
	<stop  offset="1" style="stop-color:#3F1400"/>
</linearGradient>
<path fill="url(#SVGID_24_)" d="M74.495,72.349l6.038,0.007v-5.812h11.473v5.837h5.634v5.635H86.054v11.472h5.837v5.823H80.476
	v-5.737h-5.981V72.349z M126.321,66.544h-5.837v5.837h5.837V66.544z M109.012,66.544h11.473V60.91h-5.636v-5.837h-11.473v-5.434
	H86.068v5.434H74.517v5.837h-5.544v5.635h-5.836v17.107h-5.636v45.995h5.746v-5.702h5.636v-5.77h5.836v5.77h5.753v5.702h5.665
	v-11.472h11.472v11.472h11.376v-5.702h5.836v-5.77h5.636v5.636h5.837v5.836h5.708V83.759h-5.837v-5.726h-11.417v11.455h5.781v5.634
	h-11.517v-5.634h-5.636V72.381h5.636V66.544z"/>
<linearGradient id="SVGID_25_" gradientUnits="userSpaceOnUse" x1="56.4009" y1="74.2646" x2="133.7578" y2="124.2147">
	<stop  offset="0.0217" style="stop-color:#FFFFFF"/>
	<stop  offset="0.6141" style="stop-color:#FAD964"/>
	<stop  offset="0.6772" style="stop-color:#FADA69"/>
	<stop  offset="0.8495" style="stop-color:#EBC95B"/>
	<stop  offset="1" style="stop-color:#F4D15E"/>
	<stop  offset="1" style="stop-color:#BBA049"/>
	<stop  offset="1" style="stop-color:#857235"/>
	<stop  offset="1" style="stop-color:#584C25"/>
	<stop  offset="1" style="stop-color:#352E18"/>
	<stop  offset="1" style="stop-color:#1B180F"/>
	<stop  offset="1" style="stop-color:#0C0B09"/>
	<stop  offset="1" style="stop-color:#070707"/>
</linearGradient>
<path fill="url(#SVGID_25_)" d="M72.744,72.349l6.038,0.007v-5.812h11.473v5.837h5.634v5.635H84.303v11.472h5.837v5.823H78.725
	v-5.737h-5.981V72.349z M124.57,66.544h-5.837v5.837h5.837V66.544z M107.261,66.544h11.473V60.91h-5.636v-5.837h-11.473v-5.434
	H84.317v5.434H72.766v5.837h-5.544v5.635h-5.836v17.107H55.75v45.995h5.746v-5.702h5.636v-5.77h5.836v5.77h5.753v5.702h5.665
	v-11.472h11.472v11.472h11.376v-5.702h5.836v-5.77h5.636v5.636h5.837v5.836h5.708V83.759h-5.837v-5.726h-11.417v11.455h5.781v5.634
	h-11.517v-5.634h-5.636V72.381h5.636V66.544z"/>
<polyline fill="none" stroke="#000000" stroke-width="0" stroke-linecap="round" stroke-linejoin="round" stroke-miterlimit="10" points="
	55.75,129.54 55.75,83.651 61.386,83.651 61.386,66.544 67.222,66.544 67.222,60.91 72.766,60.91 72.766,55.073 84.317,55.073 
	84.317,49.639 101.625,49.639 101.625,55.073 113.098,55.073 113.098,60.91 118.733,60.91 118.733,66.544 124.57,66.544 
	124.57,72.381 118.733,72.381 118.733,66.544 107.261,66.544 107.261,72.381 101.625,72.381 101.625,89.488 107.261,89.488 
	107.261,95.123 118.777,95.123 118.777,89.488 124.413,89.488 124.413,83.759 130.25,83.759 130.25,129.646 124.542,129.646 
	124.542,123.811 118.705,123.811 118.705,118.175 113.069,118.175 113.069,123.944 107.233,123.944 107.233,129.646 95.857,129.646 
	95.857,118.175 84.386,118.175 84.386,129.646 78.721,129.646 78.721,123.944 72.968,123.944 72.968,118.175 67.132,118.175 
	67.132,123.944 61.496,123.944 "/>
<path display="none" fill="none" stroke="#000000" stroke-width="0" stroke-linecap="round" stroke-linejoin="round" stroke-miterlimit="10" d="
	M90.14,89.488h-5.837V78.017h11.586 M72.744,89.488V72.349l6.038,0.007v-5.812h11.473v5.837h5.634v17.107H90.14v5.823H78.725v-5.737
	h-5.981V89.488 M112.996,89.505V78.033h11.417v11.455h-11.417 M61.496,123.944v5.702H55.75v-0.106"/>
<g>
	<g>
		<path fill="#752E0E" d="M82.095,163.642c1.857,0.396,3.726,0.713,5.603,0.948c0.426,0.054,0.796,0.291,0.74,0.794
			c-0.056,0.5-0.482,0.651-0.915,0.596c-2.473-0.311-4.934-0.759-7.37-1.343c0.355-1.48,0.711-2.961,1.065-4.44
			c0.249-1.022,0.94-1.396,2.065-1.157c1.408,0.296,2.825,0.542,4.247,0.739c0.153-1.105,0.306-2.211,0.458-3.316
			c-1.646-0.228-3.284-0.526-4.91-0.895c-0.371-0.084-0.664-0.356-0.545-0.847c0.118-0.489,0.497-0.602,0.855-0.521
			c1.532,0.348,3.074,0.631,4.624,0.85c0.46,0.064,0.775,0.176,1.088,0.539c0.352,0.408,0.354,0.788,0.298,1.29
			c-0.107,0.951-0.215,1.902-0.322,2.854c-0.059,0.5-0.142,0.873-0.619,1.183c-0.426,0.273-0.792,0.297-1.305,0.226
			c-1.458-0.207-2.912-0.464-4.357-0.773C82.562,161.459,82.328,162.55,82.095,163.642z"/>
		<path fill="#752E0E" d="M95.528,160.355c0.938,0.007,1.876-0.008,2.813-0.044c0.489-0.02,0.855,0.032,1.244,0.331
			c0.453,0.339,0.523,0.67,0.555,1.159c0.066,0.997,0.133,1.994,0.199,2.991c0.028,0.433,0,0.745-0.328,1.115
			c-0.392,0.444-0.828,0.524-1.432,0.548c-1.244,0.048-2.488,0.062-3.733,0.042c-0.436-0.008-0.687-0.111-1.101-0.279
			c-0.209-0.086-0.418-0.174-0.626-0.262c-0.442-0.188-0.934-0.341-0.906-0.831c0.022-0.362,0.4-0.678,0.822-0.659
			c0.196,0.01,0.339,0.056,0.518,0.133c0.161,0.067,0.323,0.133,0.485,0.199c0.226,0.091,0.601,0.295,0.864,0.299
			c1.269,0.021,2.536,0.004,3.804-0.048c-0.047-1.115-0.093-2.23-0.139-3.345c-1.537,0.063-3.075,0.071-4.612,0.021
			c0.065-2.049,0.13-4.098,0.195-6.146c1.622,0.051,3.245,0.033,4.865-0.054c0.364-0.02,0.718,0.154,0.751,0.657
			c0.035,0.502-0.3,0.721-0.676,0.742c-1.179,0.063-2.359,0.091-3.54,0.083C95.545,158.124,95.537,159.24,95.528,160.355z"/>
		<path fill="#752E0E" d="M103.859,158.167c-0.048-0.375,0.243-0.739,0.637-0.796c0.521-0.076,1.04-0.159,1.559-0.248
			c-0.097-0.553-0.191-1.104-0.287-1.656c-0.077-0.442,0.077-0.723,0.577-0.816c0.499-0.094,0.746,0.114,0.833,0.554
			c0.109,0.55,0.219,1.099,0.328,1.648c0.517-0.103,1.032-0.213,1.546-0.329c0.375-0.085,0.766,0.023,0.885,0.513
			s-0.188,0.768-0.575,0.854c-1.299,0.295-2.605,0.546-3.916,0.755c0.115,0.729,0.23,1.457,0.347,2.186
			c1.359-0.216,2.714-0.477,4.06-0.782c0.397-0.09,0.811,0.013,0.929,0.503c0.118,0.489-0.213,0.771-0.619,0.863
			c-0.557,0.126-1.116,0.245-1.677,0.356c0.109,0.55,0.219,1.1,0.328,1.649c0.088,0.438-0.092,0.732-0.68,0.843
			c-0.589,0.108-0.861-0.102-0.936-0.542c-0.096-0.553-0.191-1.104-0.287-1.657c-0.563,0.098-1.127,0.188-1.69,0.27
			c-0.428,0.063-0.835-0.21-0.884-0.584C104.178,160.555,104.018,159.361,103.859,158.167z"/>
	</g>
</g>
</svg>
